<?xml version="1.0" encoding="utf-8"?>
<!-- Generator: Adobe Illustrator 17.0.0, SVG Export Plug-In . SVG Version: 6.00 Build 0)  -->
<!DOCTYPE svg PUBLIC "-//W3C//DTD SVG 1.1//EN" "http://www.w3.org/Graphics/SVG/1.1/DTD/svg11.dtd">
<svg version="1.1" id="Layer_1" xmlns="http://www.w3.org/2000/svg" xmlns:xlink="http://www.w3.org/1999/xlink" x="0px" y="0px"
	 width="13px" height="13px" viewBox="1.5 -9.5 13 13" enable-background="new 1.5 -9.5 13 13" xml:space="preserve">
<g>
	<rect x="2.5" y="-2.5" fill="#414042" width="5" height="5"/>
</g>
<g>
	<rect x="8.5" y="-8.5" fill="#414042" width="5" height="5"/>
</g>
<g id="XMLID_1_">
	<g>
		<rect x="13.5" y="2.5" width="1" height="0.12"/>
		<rect x="13.5" y="-2.5" width="1" height="5"/>
		<rect x="13.5" y="-3.5" width="1" height="1"/>
		<polygon points="14.5,-9.5 14.5,-3.5 13.5,-3.5 13.5,-8.5 14.37,-8.5 14.37,-9.5 		"/>
		<rect x="13.5" y="-9.5" width="0.87" height="1"/>
		<polygon points="14.5,2.62 14.5,3.5 8.5,3.5 8.5,2.5 13.5,2.5 13.5,2.62 		"/>
		<rect x="8.5" y="-3.5" width="5" height="1"/>
		<rect x="8.5" y="-9.5" width="5" height="1"/>
		<rect x="7.5" y="2.5" width="1" height="1"/>
		<rect x="7.5" y="-2.5" width="1" height="5"/>
		<rect x="7.5" y="-3.5" width="1" height="1"/>
		<rect x="7.5" y="-8.5" width="1" height="5"/>
		<rect x="7.5" y="-9.5" width="1" height="1"/>
		<polygon points="7.5,2.5 7.5,3.5 2.5,3.5 2.5,3.42 2.5,2.5 		"/>
		<rect x="2.5" y="-3.5" width="5" height="1"/>
		<rect x="2.5" y="-9.5" width="5" height="1"/>
		<polygon points="2.5,2.5 2.5,3.42 1.5,3.42 1.5,-2.5 2.5,-2.5 		"/>
		<rect x="1.5" y="-3.5" fill="#414042" width="1" height="1"/>
		<rect x="1.5" y="-8.5" width="1" height="5"/>
		<rect x="1.5" y="-9.5" width="1" height="1"/>
	</g>
	<g>
	</g>
</g>
</svg>
