<?xml version="1.0" encoding="utf-8"?>
<!-- Generator: Adobe Illustrator 17.0.0, SVG Export Plug-In . SVG Version: 6.00 Build 0)  -->
<!DOCTYPE svg PUBLIC "-//W3C//DTD SVG 1.1//EN" "http://www.w3.org/Graphics/SVG/1.1/DTD/svg11.dtd">
<svg version="1.1" id="Layer_1" xmlns="http://www.w3.org/2000/svg" xmlns:xlink="http://www.w3.org/1999/xlink" x="0px" y="0px"
	 width="14px" height="14px" viewBox="0 0 14 14" enable-background="new 0 0 14 14" xml:space="preserve">
<path fill="#FFFFFF" d="M13.99,12.59L12.58,14l-3.96-3.97L7.35,8.76c0.59-0.33,1.08-0.82,1.41-1.41l1.27,1.27L13.99,12.59z"/>
<path fill="#FFFFFF" d="M5.5,0C2.46,0,0,2.46,0,5.5C0,8.54,2.46,11,5.5,11c1.16,0,2.23-0.36,3.12-0.97
	c0.55-0.38,1.03-0.86,1.41-1.41C10.64,7.73,11,6.66,11,5.5C11,2.46,8.54,0,5.5,0z M7.35,8.76C6.8,9.07,6.18,9.25,5.5,9.25
	c-2.07,0-3.75-1.68-3.75-3.75S3.43,1.75,5.5,1.75S9.25,3.43,9.25,5.5c0,0.68-0.18,1.3-0.49,1.85C8.43,7.94,7.94,8.43,7.35,8.76z"/>
</svg>
