<?xml version="1.0" encoding="UTF-8" standalone="no"?>
<!DOCTYPE svg PUBLIC "-//W3C//DTD SVG 1.1//EN"
 "http://www.w3.org/Graphics/SVG/1.1/DTD/svg11.dtd">
<!-- Generated by graphviz version 2.40.1 (20161225.0304)
 -->
<!-- Title: G Pages: 1 -->
<svg width="148pt" height="311pt"
 viewBox="0.00 0.00 148.42 311.00" xmlns="http://www.w3.org/2000/svg" xmlns:xlink="http://www.w3.org/1999/xlink">
<g id="graph0" class="graph" transform="scale(1 1) rotate(0) translate(4 307)">
<title>G</title>
<polygon fill="#ffffff" stroke="transparent" points="-4,4 -4,-307 144.415,-307 144.415,4 -4,4"/>
<g id="clust1" class="cluster">
<title>cluster_Global</title>
<path fill="none" stroke="#c0c0c0" d="M20,-8C20,-8 120.415,-8 120.415,-8 126.415,-8 132.415,-14 132.415,-20 132.415,-20 132.415,-283 132.415,-283 132.415,-289 126.415,-295 120.415,-295 120.415,-295 20,-295 20,-295 14,-295 8,-289 8,-283 8,-283 8,-20 8,-20 8,-14 14,-8 20,-8"/>
<text text-anchor="middle" x="70.2075" y="-282.2" font-family="Times,serif" font-size="11.00" fill="#c0c0c0">Global</text>
</g>
<!-- \\Responsibility -->
<g id="node1" class="node">
<title>\\Responsibility</title>
<polygon fill="none" stroke="#000000" points="124.6234,-268 15.7917,-268 15.7917,-232 124.6234,-232 124.6234,-268"/>
<text text-anchor="middle" x="70.2075" y="-246.7" font-family="Courier,monospace" font-size="11.00" fill="#000000">Responsibility</text>
</g>
<!-- \\Location -->
<g id="node2" class="node">
<title>\\Location</title>
<polygon fill="none" stroke="#000000" points="104.5164,-214 35.8987,-214 35.8987,-178 104.5164,-178 104.5164,-214"/>
<text text-anchor="middle" x="70.2075" y="-192.7" font-family="Courier,monospace" font-size="11.00" fill="#000000">Location</text>
</g>
<!-- \\Database -->
<g id="node3" class="node">
<title>\\Database</title>
<polygon fill="none" stroke="#000000" points="104.5164,-160 35.8987,-160 35.8987,-124 104.5164,-124 104.5164,-160"/>
<text text-anchor="middle" x="70.2075" y="-138.7" font-family="Courier,monospace" font-size="11.00" fill="#000000">Database</text>
</g>
<!-- \\Note -->
<g id="node4" class="node">
<title>\\Note</title>
<polygon fill="none" stroke="#000000" points="97.2075,-106 43.2075,-106 43.2075,-70 97.2075,-70 97.2075,-106"/>
<text text-anchor="middle" x="70.2075" y="-84.7" font-family="Courier,monospace" font-size="11.00" fill="#000000">Note</text>
</g>
<!-- \\Status -->
<g id="node5" class="node">
<title>\\Status</title>
<polygon fill="none" stroke="#000000" points="97.8153,-52 42.5997,-52 42.5997,-16 97.8153,-16 97.8153,-52"/>
<text text-anchor="middle" x="70.2075" y="-30.7" font-family="Courier,monospace" font-size="11.00" fill="#000000">Status</text>
</g>
</g>
</svg>
