<?xml version="1.0" encoding="utf-8"?>
<!-- Generator: Adobe Illustrator 17.0.0, SVG Export Plug-In . SVG Version: 6.00 Build 0)  -->
<!DOCTYPE svg PUBLIC "-//W3C//DTD SVG 1.1//EN" "http://www.w3.org/Graphics/SVG/1.1/DTD/svg11.dtd">
<svg version="1.1" xmlns="http://www.w3.org/2000/svg" xmlns:xlink="http://www.w3.org/1999/xlink" x="0px" y="0px" width="74px"
	 height="44.931px" viewBox="0 0 74 44.931" enable-background="new 0 0 74 44.931" xml:space="preserve">
<g id="Layer_3_copy_2">
	<path fill="#FFFFFF" d="M31.066,42.231C21,37.931,5,39.931,5,39.931v-30H0v35h30.08C30.22,43.95,30.562,43.037,31.066,42.231z"/>
	<path fill="#FFFFFF" d="M33.656,39.781C29.147,34.774,20.209,33.025,16,32.931V3.092c-2.02-0.08-7.761-0.12-9-0.14v35
		c5.13,0.084,14-2.021,25.434,2.681C32.81,40.309,33.217,40.02,33.656,39.781z"/>
	<path fill="#FFFFFF" d="M35.066,39.208c0.303-0.087,0.615-0.151,0.934-0.197V12C36,2.931,24.77,0.301,18,0v31.055
		C23.757,31.581,32.268,33.824,35.066,39.208z"/>
</g>
<g id="Layer_3_copy_4">
	<path fill="#FFFFFF" d="M42.934,42.231C53,37.931,69,39.931,69,39.931v-30h5v35H43.92C43.78,43.95,43.438,43.037,42.934,42.231z"/>
	<path fill="#FFFFFF" d="M40.344,39.781c4.509-5.007,13.447-6.756,17.656-6.849V3.092c2.02-0.08,7.761-0.12,9-0.14v35
		c-5.13,0.084-14-2.021-25.434,2.681C41.19,40.309,40.783,40.02,40.344,39.781z"/>
	<path fill="#FFFFFF" d="M38.934,39.208c-0.303-0.087-0.615-0.151-0.934-0.197V12C38,2.931,49.23,0.301,56,0v31.055
		C50.243,31.581,41.732,33.824,38.934,39.208z"/>
</g>
</svg>
